# xmcd
#
# Track frame offsets:
#	150
#	20995
#	38522
#	44239
#	66374
#	89044
#	130663
#	155475
#	175516
#	200100
#	220472
#
# Disc length: 3280 seconds
#
# Revision: 0
# Processed by: cddbd v1.4PL0 Copyright (c) Steve Scherf et al.
# Submitted via: EasyCDDAExtractor 4.6.9.1
#
DISCID=a80cce0b
DTITLE=Peter Gabriel - Pavillion Of Memories Cd2
DYEAR=1900
DGENRE=Blues
TTITLE0=Humdrum
TTITLE1=Games Without Fronties
TTITLE2=Band Introduction
TTITLE3=And Thriugh The Wire
TTITLE4=I Go Swimming
TTITLE5=Biko
TTITLE6=On The Air
TTITLE7=Here Comes The Flood
TTITLE8=Solisbury Hill
TTITLE9=Reach Out
TTITLE10=I Know What I Like
EXTD=
EXTT0=
EXTT1=
EXTT2=
EXTT3=
EXTT4=
EXTT5=
EXTT6=
EXTT7=
EXTT8=
EXTT9=
EXTT10=
PLAYORDER=
